<?xml version="1.0" encoding="UTF-8"?>
<!DOCTYPE svg PUBLIC "-//W3C//DTD SVG 1.1//EN" "http://www.w3.org/Graphics/SVG/1.1/DTD/svg11.dtd">
<svg xmlns="http://www.w3.org/2000/svg" version="1.1" width="750px" height="750px" style="shape-rendering:geometricPrecision; text-rendering:geometricPrecision; image-rendering:optimizeQuality; fill-rule:evenodd; clip-rule:evenodd" xmlns:xlink="http://www.w3.org/1999/xlink">
<g><path style="opacity:0.999" fill="#46c2cf" d="M 152.5,-0.5 C 300.5,-0.5 448.5,-0.5 596.5,-0.5C 671.279,11.4408 720.445,53.4408 744,125.5C 746.281,134.551 748.115,143.551 749.5,152.5C 749.5,300.5 749.5,448.5 749.5,596.5C 737.559,671.279 695.559,720.445 623.5,744C 614.449,746.281 605.449,748.115 596.5,749.5C 448.5,749.5 300.5,749.5 152.5,749.5C 77.7194,737.557 28.5527,695.557 5,623.5C 2.71871,614.449 0.885375,605.449 -0.5,596.5C -0.5,448.5 -0.5,300.5 -0.5,152.5C 11.4408,77.7212 53.4408,28.5546 125.5,5C 134.551,2.71871 143.551,0.885375 152.5,-0.5 Z"/></g>
<g><path style="opacity:1" fill="#15191a" d="M 157.5,228.5 C 168.156,227.28 178.156,229.114 187.5,234C 190.04,236.205 192.207,238.705 194,241.5C 195.286,256.766 195.953,272.099 196,287.5C 197.794,291.593 199.961,295.426 202.5,299C 201.561,300.944 200.227,302.611 198.5,304C 195.22,307.121 191.553,309.621 187.5,311.5C 183.546,309.214 180.212,306.214 177.5,302.5C 168.093,311.109 157.093,313.943 144.5,311C 135.057,306.794 130.39,299.461 130.5,289C 131.1,276.806 137.1,268.473 148.5,264C 157.036,261.906 165.702,260.739 174.5,260.5C 176.33,246.829 170.663,241.995 157.5,246C 154.495,248.346 152.495,251.346 151.5,255C 145.589,255.16 139.756,254.66 134,253.5C 133.502,244.338 137.335,237.504 145.5,233C 149.432,230.972 153.432,229.472 157.5,228.5 Z"/></g>
<g><path style="opacity:1" fill="#151819" d="M 243.5,228.5 C 256.104,225.855 265.27,230.189 271,241.5C 276.986,229.595 286.486,225.428 299.5,229C 307.734,231.974 312.234,237.807 313,246.5C 313.833,268.174 313.666,289.841 312.5,311.5C 305.97,312.818 299.47,312.818 293,311.5C 292.667,292.167 292.333,272.833 292,253.5C 287.977,247.246 282.811,246.08 276.5,250C 274.898,251.935 273.731,254.101 273,256.5C 272.827,275.073 272.327,293.573 271.5,312C 264.918,312.81 258.418,312.643 252,311.5C 251.667,292.167 251.333,272.833 251,253.5C 247.465,247.355 242.632,246.021 236.5,249.5C 234.297,251.295 233.131,253.629 233,256.5C 232.667,274.5 232.333,292.5 232,310.5C 231.5,311 231,311.5 230.5,312C 224.251,312.809 218.084,312.642 212,311.5C 211.333,284.5 211.333,257.5 212,230.5C 217.75,229.359 223.584,229.193 229.5,230C 230,230.5 230.5,231 231,231.5C 231.333,234.5 231.667,237.5 232,240.5C 234.691,235.311 238.524,231.311 243.5,228.5 Z"/></g>
<g><path style="opacity:1" fill="#151819" d="M 352.5,228.5 C 363.423,227.246 373.757,229.079 383.5,234C 387.381,236.928 389.881,240.761 391,245.5C 391.333,259.167 391.667,272.833 392,286.5C 392.607,290.381 394.274,293.714 397,296.5C 397.667,298.167 397.667,299.833 397,301.5C 392.897,305.445 388.397,308.779 383.5,311.5C 379.546,309.214 376.212,306.214 373.5,302.5C 364.094,311.043 353.094,313.877 340.5,311C 330.911,306.672 326.245,299.172 326.5,288.5C 326.905,276.257 332.905,268.09 344.5,264C 353.044,261.921 361.711,260.754 370.5,260.5C 371.512,245.68 365.179,241.18 351.5,247C 349.426,249.302 348.092,251.968 347.5,255C 341.842,255.032 336.175,254.699 330.5,254C 330,253.5 329.5,253 329,252.5C 329.733,244.878 333.233,238.711 339.5,234C 343.741,231.651 348.075,229.818 352.5,228.5 Z"/></g>
<g><path style="opacity:1" fill="#15191a" d="M 498.5,228.5 C 523.483,225.647 537.983,236.647 542,261.5C 544.772,278.946 539.938,293.78 527.5,306C 510.475,316.442 495.309,314.275 482,299.5C 474.042,283.841 472.375,267.507 477,250.5C 481.045,239.956 488.212,232.623 498.5,228.5 Z"/></g>
<g><path style="opacity:1" fill="#15191a" d="M 574.5,231.5 C 574.334,235.514 574.501,239.514 575,243.5C 575.513,242.473 576.013,241.473 576.5,240.5C 582.556,229.32 591.89,225.486 604.5,229C 610.758,231.59 614.925,236.09 617,242.5C 618.591,265.467 618.924,288.467 618,311.5C 611.582,312.643 605.082,312.81 598.5,312C 598,311.5 597.5,311 597,310.5C 596.667,291.5 596.333,272.5 596,253.5C 590.966,245.837 585.3,245.504 579,252.5C 578.138,254.087 577.471,255.754 577,257.5C 576.667,275.167 576.333,292.833 576,310.5C 575.5,311 575,311.5 574.5,312C 568.167,312.667 561.833,312.667 555.5,312C 554.339,284.905 554.172,257.739 555,230.5C 561.084,229.358 567.251,229.191 573.5,230C 574.056,230.383 574.389,230.883 574.5,231.5 Z"/></g>
<g><path style="opacity:1" fill="#386265" d="M 574.5,231.5 C 575.167,234.5 575.833,237.5 576.5,240.5C 576.013,241.473 575.513,242.473 575,243.5C 574.501,239.514 574.334,235.514 574.5,231.5 Z"/></g>
<g><path style="opacity:1" fill="#15191a" d="M 436.5,250.5 C 437.043,250.44 437.376,250.107 437.5,249.5C 428.859,248.502 420.192,248.169 411.5,248.5C 410.504,248.586 409.671,248.252 409,247.5C 408.223,242.778 408.39,238.111 409.5,233.5C 427.491,232.334 445.491,232.167 463.5,233C 464.632,237.413 464.799,241.913 464,246.5C 454.623,260.088 445.123,273.588 435.5,287C 445.786,286.942 455.453,289.275 464.5,294C 466.038,296.928 466.704,300.094 466.5,303.5C 466.333,305.833 466.167,308.167 466,310.5C 465.261,311.574 464.261,312.241 463,312.5C 450.404,306.886 437.237,305.052 423.5,307C 418.401,308.133 413.568,309.966 409,312.5C 408.228,312.355 407.561,312.022 407,311.5C 406.333,305.167 406.333,298.833 407,292.5C 417.086,278.597 426.919,264.597 436.5,250.5 Z"/></g>
<g><path style="opacity:1" fill="#46c0cc" d="M 504.5,243.5 C 514.015,243.18 518.849,247.847 519,257.5C 519.667,266.5 519.667,275.5 519,284.5C 517.913,293.269 513.079,297.102 504.5,296C 500.123,292.245 497.623,287.412 497,281.5C 495.826,270.657 496.492,259.99 499,249.5C 500.36,246.977 502.193,244.977 504.5,243.5 Z"/></g>
<g><path style="opacity:1" fill="#376062" d="M 411.5,248.5 C 420.192,248.169 428.859,248.502 437.5,249.5C 437.376,250.107 437.043,250.44 436.5,250.5C 428.167,249.833 419.833,249.167 411.5,248.5 Z"/></g>
<g><path style="opacity:1" fill="#46becb" d="M 163.5,272.5 C 167.167,272.5 170.833,272.5 174.5,272.5C 175.976,280.899 173.976,288.233 168.5,294.5C 158.963,299.234 153.629,296.401 152.5,286C 153.467,279.208 157.134,274.708 163.5,272.5 Z"/></g>
<g><path style="opacity:1" fill="#46bfcb" d="M 359.5,272.5 C 363.167,272.5 366.833,272.5 370.5,272.5C 372.018,281.275 369.685,288.775 363.5,295C 354.477,298.829 349.477,295.996 348.5,286.5C 349.187,279.481 352.853,274.815 359.5,272.5 Z"/></g>
<g><path style="opacity:1" fill="#161b1c" d="M 424.5,316.5 C 432.886,316.213 441.219,316.713 449.5,318C 450.931,318.465 452.097,319.299 453,320.5C 453.463,336.735 447.963,350.568 436.5,362C 435.552,362.483 434.552,362.649 433.5,362.5C 435.679,353.789 438.179,345.122 441,336.5C 442.954,331.022 441.121,327.855 435.5,327C 425.829,326.637 416.162,326.804 406.5,327.5C 406.452,324.708 407.785,322.875 410.5,322C 415.159,319.842 419.825,318.009 424.5,316.5 Z"/></g>
<g><path style="opacity:1" fill="#15191a" d="M 199.5,320.5 C 224.795,333.638 251.461,343.138 279.5,349C 328.829,357.815 376.829,353.148 423.5,335C 431.723,333.198 433.39,335.531 428.5,342C 370.951,376.092 310.951,380.758 248.5,356C 230.392,347.872 213.892,337.372 199,324.5C 198.421,323.072 198.588,321.738 199.5,320.5 Z"/></g>
<g><path style="opacity:1" fill="#161b1c" d="M 506.5,381.5 C 521.259,381.69 526.092,388.69 521,402.5C 516.772,407.087 511.606,408.587 505.5,407C 498.22,403.269 495.72,397.435 498,389.5C 500.098,385.897 502.932,383.23 506.5,381.5 Z"/></g>
<g><path style="opacity:1" fill="#151919" d="M 183.5,417.5 C 193.267,416.692 202.267,418.859 210.5,424C 212.333,426.5 214.167,429 216,431.5C 232.483,418.736 250.65,415.236 270.5,421C 277.387,424.887 281.553,430.721 283,438.5C 283.667,464.833 283.667,491.167 283,517.5C 282.5,518 282,518.5 281.5,519C 276.167,519.667 270.833,519.667 265.5,519C 265,518.5 264.5,518 264,517.5C 263.667,493.167 263.333,468.833 263,444.5C 260.219,436.183 254.385,432.517 245.5,433.5C 236.538,434.154 228.205,436.82 220.5,441.5C 219.667,466.827 219.167,492.16 219,517.5C 218.5,518 218,518.5 217.5,519C 212.167,519.667 206.833,519.667 201.5,519C 201,518.5 200.5,518 200,517.5C 199.667,493.5 199.333,469.5 199,445.5C 196.294,436.799 190.294,432.799 181,433.5C 171.852,434.049 163.352,436.716 155.5,441.5C 154.667,466.827 154.167,492.16 154,517.5C 153.5,518 153,518.5 152.5,519C 147.167,519.667 141.833,519.667 136.5,519C 136,518.5 135.5,518 135,517.5C 134.333,485.833 134.333,454.167 135,422.5C 135.5,422 136,421.5 136.5,421C 140.833,420.333 145.167,420.333 149.5,421C 150.416,421.374 151.25,421.874 152,422.5C 152.413,425.232 153.08,427.899 154,430.5C 163.119,424.353 172.952,420.02 183.5,417.5 Z"/></g>
<g><path style="opacity:1" fill="#15191a" d="M 441.5,417.5 C 452.889,416.93 463.889,418.763 474.5,423C 475.333,423.833 476.167,424.667 477,425.5C 477.793,429.423 477.626,433.256 476.5,437C 471.021,436.966 465.687,435.966 460.5,434C 453.5,433.333 446.5,433.333 439.5,434C 431.456,436.733 428.622,442.233 431,450.5C 431.785,452.286 432.951,453.786 434.5,455C 446.751,460.528 459.084,465.861 471.5,471C 481.919,478.586 485.419,488.752 482,501.5C 476.404,514.39 466.571,521.557 452.5,523C 440.183,524.451 428.183,523.118 416.5,519C 413.943,518.315 412.109,516.815 411,514.5C 410.207,510.577 410.374,506.744 411.5,503C 417.526,503.807 423.526,505.14 429.5,507C 437.167,507.667 444.833,507.667 452.5,507C 461.962,504.871 465.795,499.037 464,489.5C 462.954,487.91 461.787,486.41 460.5,485C 450.659,480.609 440.659,476.609 430.5,473C 415.936,466.994 409.769,456.161 412,440.5C 417.029,426.634 426.863,418.967 441.5,417.5 Z"/></g>
<g><path style="opacity:1" fill="#15191a" d="M 577.5,418.5 C 586.173,418.334 594.84,418.5 603.5,419C 608.257,419.812 612.757,421.312 617,423.5C 617.799,428.087 617.632,432.587 616.5,437C 609.275,435.726 601.941,434.893 594.5,434.5C 577.991,433.19 567.824,440.523 564,456.5C 558.04,499.208 575.873,515.042 617.5,504C 618.629,508.079 618.796,512.245 618,516.5C 609.793,521.596 600.793,523.93 591,523.5C 556.873,521.864 540.706,503.864 542.5,469.5C 541.587,443.608 553.254,426.608 577.5,418.5 Z"/></g>
<g><path style="opacity:1" fill="#15191a" d="M 311.5,421.5 C 316.511,421.334 321.511,421.501 326.5,422C 327,422.5 327.5,423 328,423.5C 328.333,446.833 328.667,470.167 329,493.5C 330.217,503.194 335.717,507.861 345.5,507.5C 355.519,506.993 364.686,503.993 373,498.5C 373.333,473.833 373.667,449.167 374,424.5C 376.749,421.959 380.082,420.959 384,421.5C 386.5,421.667 389,421.833 391.5,422C 392,422.5 392.5,423 393,423.5C 393.833,455.505 393.667,487.505 392.5,519.5C 387.889,520.61 383.222,520.777 378.5,520C 376.966,517.034 375.8,513.867 375,510.5C 361.393,520.37 346.226,524.536 329.5,523C 318.248,520.081 311.415,512.914 309,501.5C 308.333,475.5 308.333,449.5 309,423.5C 309.995,422.934 310.828,422.267 311.5,421.5 Z"/></g>
<g><path style="opacity:1" fill="#161a1b" d="M 501.5,421.5 C 506.844,421.334 512.177,421.501 517.5,422C 518.931,422.465 520.097,423.299 521,424.5C 521.667,456.833 521.667,489.167 521,521.5C 520.5,522 520,522.5 519.5,523C 513.5,523.667 507.5,523.667 501.5,523C 501,522.5 500.5,522 500,521.5C 499.333,488.833 499.333,456.167 500,423.5C 500.717,422.956 501.217,422.289 501.5,421.5 Z"/></g>
</svg>
