<?xml version="1.0" encoding="UTF-8"?>
<!DOCTYPE svg PUBLIC "-//W3C//DTD SVG 1.1//EN" "http://www.w3.org/Graphics/SVG/1.1/DTD/svg11.dtd">
<svg xmlns="http://www.w3.org/2000/svg" version="1.1" width="939px" height="940px" style="shape-rendering:geometricPrecision; text-rendering:geometricPrecision; image-rendering:optimizeQuality; fill-rule:evenodd; clip-rule:evenodd" xmlns:xlink="http://www.w3.org/1999/xlink">
<g><path style="opacity:0.997" fill="#1dd65f" d="M 439.5,13.5 C 579.225,7.66171 698.391,53.6617 797,151.5C 896.917,258.927 938.25,385.927 921,532.5C 897.505,678.208 823.005,789.042 697.5,865C 574.558,932.545 446.558,943.878 313.5,899C 182.089,848.589 90.9226,757.756 40,626.5C 0.454165,512.207 3.7875,399.207 50,287.5C 95.5735,185.26 168.407,109.093 268.5,59C 322.731,33.0272 379.731,17.8606 439.5,13.5 Z"/></g>
<g><path style="opacity:1" fill="#000000" d="M 349.5,266.5 C 502.845,264.266 647.845,297.766 784.5,367C 807.703,379.933 815.203,399.099 807,424.5C 794.803,446.907 776.303,454.74 751.5,448C 579.242,359.302 397.909,333.302 207.5,370C 180.547,372.604 163.714,360.771 157,334.5C 154.922,309.483 165.755,292.983 189.5,285C 242.452,274.265 295.785,268.098 349.5,266.5 Z"/></g>
<g><path style="opacity:1" fill="#000000" d="M 345.5,424.5 C 461.597,421.534 572.597,443.7 678.5,491C 695.937,498.885 712.937,507.552 729.5,517C 745.597,531.971 747.764,548.805 736,567.5C 726.437,578.021 714.604,582.188 700.5,580C 661.243,559.372 620.576,542.039 578.5,528C 462.335,491.284 344.668,485.618 225.5,511C 204.844,513.589 191.01,505.089 184,485.5C 180.725,461.444 190.891,446.61 214.5,441C 257.869,431.943 301.535,426.443 345.5,424.5 Z"/></g>
<g><path style="opacity:1" fill="#000100" d="M 353.5,565.5 C 466.889,563.514 572.889,590.347 671.5,646C 684.059,657.621 685.892,670.788 677,685.5C 669.596,693.635 660.429,696.802 649.5,695C 520.513,622.481 383.847,602.814 239.5,636C 220.617,636.787 209.951,627.787 207.5,609C 208.212,599.239 212.545,591.573 220.5,586C 226.576,583.23 232.909,581.23 239.5,580C 277.204,571.704 315.204,566.871 353.5,565.5 Z"/></g>
</svg>
